<svg width="1440" height="866" viewBox="0 0 1440 866" fill="none" xmlns="http://www.w3.org/2000/svg">
<g clip-path="url(#clip0_206_3594)">
<rect width="1440" height="866" fill="#030712"/>
<g opacity="0.45" clip-path="url(#clip1_206_3594)">
<mask id="mask0_206_3594" style="mask-type:luminance" maskUnits="userSpaceOnUse" x="0" y="-90" width="1438" height="898">
<path d="M0 -90H1438V808H0V-90Z" fill="white"/>
</mask>
<g mask="url(#mask0_206_3594)">
<path d="M-286.881 698.265C-285.443 698.265 -284.005 698.085 -282.567 697.546C-254.526 688.746 -239.966 590.325 -221.452 465.503C-189.996 251.779 -146.676 -41.1487 -4.67346 -75.2727C42.6007 -86.5875 98.5031 -68.2682 161.595 -20.6743C231.877 32.4873 313.484 123.544 404.078 250.163C552.551 457.96 638.652 547.58 675.141 532.135C715.046 515.252 688.443 371.033 660.401 218.553C627.687 40.7489 590.479 -160.762 653.032 -192.911C692.936 -213.385 768.252 -165.073 883.292 -45.4591C988.805 64.4561 1063.76 118.336 1111.03 118.336C1118.76 118.336 1125.95 116.899 1132.25 114.026C1159.75 101.274 1173.77 60.3253 1175.21 -11.3351C1176.46 -74.9135 1168.02 -156.452 1159.75 -235.117C1143.21 -392.985 1126.13 -556.242 1187.07 -584.08C1233.98 -605.452 1322.78 -545.286 1458.49 -400.169L1459.39 -401.067C1323.32 -546.723 1233.98 -606.889 1186.35 -585.157C1158.49 -572.585 1144.29 -531.457 1142.85 -459.617C1141.59 -395.679 1150.04 -313.961 1158.31 -234.937C1174.85 -77.7871 1191.74 84.7509 1131.53 112.768C1087.49 133.243 1006.6 81.1589 884.19 -46.3571C768.791 -166.51 692.936 -214.822 652.313 -194.168C623.912 -179.62 612.948 -130.23 619.239 -43.3039C624.631 33.0261 642.067 127.496 658.964 218.732C687.005 370.854 713.428 514.354 674.602 530.877C639.371 545.784 551.114 453.649 405.156 249.265C314.562 122.467 232.956 31.2301 162.494 -21.9315C99.0422 -69.8847 42.6007 -88.3835 -5.03308 -76.8891C-147.934 -42.2263 -191.254 251.24 -222.89 465.503C-241.224 589.786 -255.784 687.848 -282.927 696.289C-289.398 698.264 -296.228 695.211 -304.137 686.77L-305.036 687.668C-298.565 694.852 -292.633 698.265 -286.881 698.265Z" fill="#21613E"/>
<path d="M-298.565 719.278C-297.127 719.278 -295.689 719.098 -294.251 718.559C-265.671 709.759 -249.134 611.697 -228.283 487.414C-192.333 273.331 -143.081 -19.5967 2.69617 -53.5411C50.33 -64.4968 106.412 -46.5367 168.965 -0.19989C238.528 51.3453 318.697 139.888 406.954 262.734C552.911 465.682 638.113 553.148 675.321 537.523C716.304 520.461 691.858 377.858 666.154 226.814C636.135 50.9861 602.163 -148.37 666.333 -181.057C707.137 -201.711 782.092 -155.195 895.874 -38.8139C1017.38 85.4693 1098.45 135.757 1143.93 114.924C1172.15 101.992 1187.07 61.2233 1189.95 -9.89832C1192.46 -73.1175 1185.27 -153.758 1178.26 -231.884C1164.42 -388.495 1150.04 -550.315 1212.41 -578.512C1260.23 -600.064 1348.66 -542.053 1482.76 -400.888L1483.66 -401.786C1349.2 -543.31 1260.23 -601.501 1211.87 -579.769C1183.47 -567.018 1168.2 -526.069 1165.32 -454.768C1162.8 -391.369 1169.99 -310.369 1177 -231.884C1190.84 -75.9911 1205.22 85.1101 1143.39 113.487C1098.45 134.141 1017.92 83.8528 896.953 -39.8915C782.811 -156.811 707.136 -203.328 665.794 -182.314C636.674 -167.408 624.811 -118.377 629.484 -32.3483C633.619 43.2633 649.437 136.655 664.895 226.994C690.599 377.499 714.686 519.562 674.781 536.265C638.831 551.352 551.473 461.552 408.032 261.836C319.595 138.81 239.427 50.2676 169.684 -1.45715C106.771 -47.9735 50.5096 -65.9335 2.33667 -54.7983C-144.339 -20.6743 -193.591 272.792 -229.721 487.234C-250.572 610.979 -266.929 708.861 -294.79 717.302C-301.261 719.278 -308.092 716.224 -315.821 708.143L-316.72 709.041C-310.428 715.865 -304.317 719.278 -298.565 719.278Z" fill="#21613E"/>
<path d="M-310.967 740.291C-309.529 740.291 -308.091 740.112 -306.653 739.573C-277.534 730.773 -259.02 633.07 -235.652 509.146C-195.388 295.063 -140.025 1.77625 9.7066 -31.6294C58.0594 -42.4054 113.962 -24.9841 175.975 19.9158C244.82 70.0242 323.55 155.873 409.65 274.948C541.946 457.96 624.092 544.527 665.794 544.527C669.209 544.527 672.445 543.989 675.321 542.731C717.203 525.49 695.273 384.324 671.906 234.717C644.763 60.685 614.026 -136.695 679.635 -169.742C721.157 -190.755 796.113 -145.855 908.636 -32.707C1010.55 69.8446 1084.25 120.133 1132.43 120.133C1141.05 120.133 1148.78 118.516 1155.79 115.283C1184.55 102.173 1200.55 61.583 1204.68 -8.99976C1208.28 -71.6802 1202.53 -151.782 1196.96 -229.189C1185.63 -384.543 1174.13 -545.106 1238.12 -573.662C1287.01 -595.394 1375.09 -539.179 1507.38 -402.144L1508.28 -403.042C1375.63 -540.616 1287.01 -596.831 1237.58 -574.74C1208.46 -561.809 1192.28 -521.039 1187.97 -450.097C1184.19 -387.058 1190.12 -306.777 1195.7 -229.01C1206.84 -74.3742 1218.53 85.4698 1155.25 114.206C1109.6 135.039 1029.25 86.5474 909.535 -33.605C796.472 -147.292 721.157 -192.192 678.916 -170.819C649.077 -155.733 636.135 -106.882 639.371 -21.5718C642.067 53.501 656.627 145.815 670.468 235.256C693.655 384.324 715.585 524.951 674.602 541.833C637.933 556.92 551.473 469.455 410.549 274.409C324.269 155.155 245.539 69.1262 176.515 19.0178C114.141 -26.2413 57.8796 -43.6626 9.1673 -32.8866C-141.463 0.698608 -196.826 294.524 -237.27 509.146C-260.458 632.531 -278.972 730.054 -307.193 738.495C-313.664 740.471 -320.494 737.597 -328.044 729.875L-328.942 730.773C-322.651 737.059 -316.719 740.291 -310.967 740.291Z" fill="#21613E"/>
<path d="M-323.909 761.305C-322.471 761.305 -321.033 761.125 -319.595 760.586C-289.937 751.966 -269.445 654.443 -243.561 530.878C-198.624 316.256 -137.149 22.4304 16.537 -10.616C65.2493 -21.0328 121.151 -4.15039 182.626 39.4924C250.751 87.9844 328.044 171.319 411.987 286.802C541.766 465.504 622.834 549.916 665.075 549.916C668.67 549.916 672.085 549.377 675.141 548.12C718.101 530.698 698.329 390.79 677.478 242.62C653.211 70.3836 625.71 -125.021 692.757 -158.786C735.177 -179.979 809.953 -136.875 921.219 -26.78C1021.34 72.1796 1094.5 120.851 1143.21 120.851C1152.2 120.851 1160.29 119.235 1167.66 115.822C1197.14 102.532 1214.21 61.9424 1219.6 -8.10156C1224.46 -70.4228 1220.14 -149.806 1215.83 -226.675C1207.2 -380.772 1198.39 -540.256 1264 -569.172C1313.79 -591.083 1401.51 -537.024 1532.19 -403.76L1533.09 -404.658C1401.87 -538.281 1313.61 -592.52 1263.28 -570.25C1233.44 -557.139 1216.19 -516.37 1210.62 -445.966C1205.58 -383.466 1210.08 -303.544 1214.39 -226.316C1223.02 -72.9372 1231.83 85.6496 1166.94 114.924C1120.38 135.938 1040.21 89.2416 921.938 -27.4984C810.133 -137.952 734.998 -181.056 692.038 -159.504C661.48 -144.238 647.46 -95.5668 649.077 -10.9752C650.515 63.3792 663.457 154.796 675.86 243.338C696.711 390.97 716.304 530.339 674.422 547.401C637.034 562.488 551.473 477.357 412.886 286.981C328.943 170.6 251.65 87.2661 183.345 38.774C121.691 -5.22797 65.429 -22.1104 16.1775 -11.6935C-138.408 21.3528 -200.062 315.717 -244.999 530.698C-270.703 653.724 -291.015 750.888 -319.955 759.329C-326.426 761.305 -333.257 758.611 -340.626 751.068L-341.525 751.966C-335.414 758.252 -329.482 761.305 -323.909 761.305Z" fill="#21613E"/>
<path d="M-337.211 782.497C-335.773 782.497 -334.155 782.318 -332.717 781.779C-302.519 773.158 -280.051 675.815 -251.65 552.609C-202.219 337.628 -134.453 43.084 23.3676 10.5764C72.619 0.518799 128.342 16.8624 189.097 59.4276C256.503 106.483 332.178 187.123 414.144 299.194C552.552 488.312 635.236 568.953 674.781 553.328C718.82 535.906 701.384 397.255 682.87 250.342C661.48 79.7224 637.034 -113.707 705.878 -148.01C749.018 -169.562 823.615 -128.075 933.801 -21.2128C1051.18 92.474 1131.53 137.554 1179.52 116.002C1209.72 102.532 1227.87 62.1216 1234.7 -7.56317C1240.81 -69.5251 1237.76 -148.37 1234.7 -224.7C1228.77 -377.719 1222.66 -535.946 1289.89 -565.221C1340.58 -587.312 1428.11 -535.228 1557.17 -405.916L1558.07 -406.814C1428.47 -536.665 1340.58 -588.749 1289.17 -566.478C1258.61 -553.188 1240.27 -512.598 1233.26 -442.734C1227.15 -380.592 1230.21 -301.209 1233.08 -224.7C1239.38 -72.2192 1245.49 85.1104 1179.16 114.744C1131.71 135.937 1051.9 91.0372 934.88 -22.2904C824.154 -129.512 749.198 -170.999 705.339 -149.268C674.242 -133.642 658.964 -85.33 659.143 -1.45679C659.143 72.3588 670.647 162.877 681.612 250.522C699.947 396.896 717.382 535.008 674.422 552.07C636.135 567.157 551.473 484.361 415.402 298.475C333.436 186.405 257.582 105.585 189.996 58.5296C128.881 15.7848 72.7988 -0.738342 23.1877 9.49884C-135.531 42.0065 -203.477 337.089 -253.088 552.609C-281.309 675.276 -303.598 772.26 -333.257 780.701C-339.907 782.497 -346.558 779.983 -353.748 772.799L-354.647 773.697C-348.715 779.444 -342.963 782.497 -337.211 782.497Z" fill="#21613E"/>
<path d="M-351.232 803.69C-349.794 803.69 -348.176 803.511 -346.738 803.151C-316.001 794.531 -291.555 697.367 -260.638 574.521C-206.353 358.641 -132.116 63.1995 30.0182 31.4103C79.6292 21.7119 135.352 37.6963 195.568 78.8247C262.255 124.443 336.492 202.569 416.301 311.048C541.047 480.231 620.317 560.332 663.637 560.332C667.591 560.332 671.186 559.614 674.422 558.357C719.539 540.756 704.44 403.362 688.263 257.706C669.569 88.7027 648.538 -102.931 718.82 -137.773C762.859 -159.505 837.275 -119.813 946.384 -16.0041C1043.09 75.9511 1114.99 121.39 1164.42 121.39C1174.31 121.39 1183.29 119.594 1191.38 116.002C1222.3 102.352 1241.35 62.1219 1249.62 -7.20374C1256.99 -68.8065 1255.19 -147.112 1253.58 -222.903C1250.34 -374.845 1246.93 -531.995 1315.95 -561.809C1367.9 -584.079 1455.08 -533.971 1582.7 -408.43L1583.6 -409.328C1455.62 -535.228 1367.9 -585.516 1315.77 -563.066C1284.49 -549.596 1265.08 -509.186 1256.81 -439.501C1249.44 -377.719 1251.06 -298.874 1252.68 -222.903C1255.91 -71.6801 1259.33 84.7515 1191.2 114.745C1142.85 136.117 1063.22 93.0131 947.642 -16.9021C838.174 -121.07 763.218 -160.941 718.64 -138.851C686.825 -123.046 670.467 -74.9129 669.029 8.42145C667.771 81.5187 677.657 171.319 687.184 258.065C703.182 403.003 718.281 540.037 674.062 557.279C635.057 572.545 551.113 491.725 417.379 310.329C337.391 201.851 262.974 123.545 196.287 77.7471C135.711 36.2595 79.8088 20.2751 29.8384 30.1531C-133.015 62.1219 -207.432 358.103 -261.716 574.161C-292.453 696.649 -316.899 793.453 -346.918 801.894C-353.568 803.69 -360.219 801.355 -367.229 794.351L-368.128 795.249C-362.556 800.817 -356.804 803.69 -351.232 803.69Z" fill="#21613E"/>
<path d="M-365.612 824.883C-363.994 824.883 -362.556 824.703 -361.118 824.344C-329.841 815.723 -303.238 718.739 -269.805 596.073C-210.847 379.655 -129.959 83.1349 36.4893 51.8845C86.4597 42.5453 142.003 57.991 201.68 98.0417C267.468 142.403 340.447 218.015 418.278 322.901C540.508 487.594 618.879 565.541 662.738 565.541C666.873 565.541 670.468 564.822 674.062 563.565C720.258 545.785 707.496 409.468 693.835 265.07C678.017 97.5029 660.042 -92.3343 732.122 -127.715C777.059 -149.806 851.296 -111.551 959.326 -10.9755C1074.01 96.0661 1153.99 137.374 1203.79 115.643C1235.6 101.813 1255.55 61.5829 1265.26 -7.38348C1273.71 -68.4475 1273.53 -146.214 1273.17 -221.467C1272.63 -372.51 1272.09 -528.762 1342.73 -558.935C1395.4 -581.385 1482.22 -533.073 1608.4 -411.304L1609.3 -412.202C1482.76 -534.33 1395.22 -582.642 1342.19 -560.013C1310.02 -546.363 1289.71 -505.953 1279.82 -436.807C1271.19 -375.204 1271.37 -297.078 1271.73 -221.467C1272.27 -71.1415 1272.81 84.2125 1203.07 114.565C1153.82 136.117 1074.37 94.6293 960.045 -11.8735C851.835 -112.988 777.059 -151.243 731.583 -128.793C698.868 -112.809 681.612 -64.8555 678.556 17.7605C675.86 90.3189 684.308 179.221 692.397 265.249C706.058 409.109 718.82 544.887 673.523 562.308C633.799 577.574 550.574 498.909 419.177 322.003C341.166 216.937 268.187 141.146 202.219 96.7845C142.362 56.5541 86.4597 40.929 36.1298 50.4478C-131.038 81.8777 -212.105 378.757 -271.243 595.534C-304.676 717.841 -330.92 814.466 -361.657 822.907C-368.308 824.703 -374.779 822.369 -381.789 815.723L-382.688 816.621C-376.756 822.189 -371.184 824.883 -365.612 824.883Z" fill="#21613E"/>
<path d="M-380.531 846.255C-378.913 846.255 -377.475 846.076 -375.857 845.717C-343.862 837.096 -315.461 740.292 -279.332 617.625C-215.341 400.309 -127.802 102.532 42.9602 71.9999C93.2903 63.02 148.653 78.1064 207.611 116.9C272.681 159.824 344.041 232.922 419.896 334.396C488.201 425.812 542.306 489.031 584.906 527.466C624.272 562.847 653.211 576.317 673.344 568.774C720.797 550.993 710.192 415.754 699.048 272.434C686.106 106.304 671.366 -81.9172 745.064 -117.837C790.9 -140.287 865.137 -103.649 972.088 -6.12604C1085.51 97.5032 1165.32 137.195 1216.01 115.284C1248.54 101.275 1269.75 61.0443 1280.72 -7.38324C1290.6 -68.2677 1291.68 -145.675 1292.76 -220.568C1294.92 -370.714 1297.08 -526.068 1369.69 -556.6C1423.26 -579.23 1509.9 -532.713 1634.65 -414.716L1635.55 -415.614C1510.44 -533.97 1423.26 -580.487 1369.16 -557.678C1336.26 -543.848 1314.69 -503.618 1303.55 -434.652C1293.66 -373.408 1292.58 -295.641 1291.5 -220.389C1289.35 -71.1412 1287.19 83.3148 1215.65 114.206C1165.5 135.938 1086.23 96.246 973.166 -7.02405C865.856 -105.086 791.08 -141.724 744.884 -119.094C711.45 -102.751 693.116 -54.9772 688.442 27.1C684.488 99.1196 691.318 187.303 697.969 272.613C709.114 415.395 719.719 550.095 673.164 567.516C632.54 582.782 550.215 506.273 421.154 333.677C345.3 232.024 273.759 158.747 208.51 115.822C149.372 76.6696 93.47 61.5831 42.7804 70.7427C-128.881 101.454 -216.599 399.77 -280.59 617.445C-316.54 739.753 -344.94 836.198 -376.217 844.639C-382.867 846.435 -389.338 844.1 -395.989 837.814L-396.888 838.712C-391.495 843.562 -386.103 846.255 -380.531 846.255Z" fill="#21613E"/>
<path d="M-395.989 867.628C-394.371 867.628 -392.933 867.448 -391.316 867.089C-358.781 858.468 -328.224 761.664 -289.577 639.177C-220.553 420.783 -126.005 121.749 49.2515 91.7557C99.941 83.1348 155.124 97.8621 213.363 135.578C277.534 177.066 347.636 248.008 421.514 346.069C488.56 435.151 541.946 496.754 584.188 534.11C623.193 568.594 652.133 581.704 672.804 574.161C721.337 556.201 713.068 421.86 704.44 279.797C694.374 115.104 682.87 -71.6804 758.365 -108.139C804.92 -130.769 879.157 -95.7468 985.03 -1.0976C1097.37 99.2988 1176.82 137.194 1228.41 115.283C1261.67 101.095 1283.95 60.8644 1296.54 -7.38361C1307.32 -68.4476 1309.84 -145.496 1312.18 -219.85C1317.03 -369.278 1322.06 -523.554 1396.48 -554.625C1450.94 -577.254 1537.4 -532.893 1660.71 -418.488L1661.61 -419.386C1537.94 -534.15 1450.94 -578.691 1395.94 -555.702C1362.15 -541.694 1339.68 -501.463 1326.91 -432.856C1315.77 -371.792 1313.25 -294.564 1310.74 -219.671C1305.88 -71.1415 1300.85 82.4164 1227.51 113.846C1176.46 135.578 1097.37 97.6825 985.569 -2.17511C879.337 -97.5427 804.741 -132.565 757.646 -109.756C723.494 -93.2324 703.901 -45.4587 697.789 35.9C692.397 107.56 697.79 195.026 703.002 279.438C711.81 421.142 719.899 554.944 672.265 572.545C630.922 587.811 549.316 513.277 422.412 344.992C348.535 246.75 278.433 175.988 213.902 134.321C155.304 96.4253 99.7612 81.6981 48.892 90.3188C-127.083 120.492 -221.812 420.065 -291.015 638.638C-329.662 760.766 -360.039 857.211 -391.855 865.652C-398.506 867.448 -404.977 865.293 -411.448 859.187L-412.347 860.084C-406.954 865.113 -401.561 867.628 -395.989 867.628Z" fill="#21613E"/>
<path d="M-411.987 889.18C-410.369 889.18 -408.751 889 -407.313 888.641C-374.239 880.02 -341.525 783.396 -300.182 660.729C-225.946 441.258 -124.387 140.427 55.363 111.153C106.232 102.891 161.236 117.259 218.756 153.718C282.208 193.948 350.872 262.376 422.772 357.205C488.74 444.131 541.227 503.938 583.289 540.397C622.115 573.982 651.054 586.554 671.905 579.011C721.696 561.051 715.764 427.608 709.473 286.442C702.104 123.006 693.835 -62.1613 771.307 -99.3385C818.582 -122.327 892.638 -88.9217 997.612 2.67426C1108.7 99.6583 1188.15 136.117 1240.63 114.026C1274.79 99.6583 1298.15 59.4279 1312 -8.46088C1324.4 -68.9861 1328.17 -145.496 1332.13 -219.491C1339.5 -368.2 1347.41 -521.758 1423.62 -553.367C1478.98 -576.177 1565.26 -533.432 1687.13 -422.798L1688.03 -423.876C1565.62 -534.868 1478.98 -577.793 1423.08 -554.625C1388.39 -540.436 1364.84 -500.206 1350.64 -431.778C1338.06 -371.073 1334.28 -294.025 1330.33 -219.671C1322.78 -71.8597 1315.05 80.8003 1239.74 112.769C1187.79 134.68 1108.88 98.4011 998.152 1.77625C893.178 -90.3585 818.582 -123.764 770.588 -100.775C735.537 -83.8929 714.866 -36.4785 707.137 44.5211C700.306 115.643 704.26 202.39 708.035 286.263C714.327 427.069 720.258 559.973 671.366 577.574C629.305 592.84 548.238 520.461 423.671 356.307C351.771 261.478 282.927 192.871 219.475 152.64C161.595 115.822 106.232 101.454 55.0035 109.896C-125.645 139.35 -227.384 440.359 -301.62 660.37C-342.963 782.498 -375.498 878.943 -407.853 887.384C-414.503 889.18 -420.794 887.025 -427.266 881.277L-428.164 882.355C-422.772 886.845 -417.379 889.18 -411.987 889.18Z" fill="#21613E"/>
<path d="M-428.704 910.731C-427.086 910.731 -425.468 910.552 -423.85 910.193C-390.237 901.572 -355.546 804.947 -311.327 682.28C-231.878 461.372 -123.129 158.926 61.2947 130.369C112.344 122.467 167.167 136.476 223.969 171.857C286.521 210.83 353.748 276.923 423.671 368.339C488.381 452.931 540.149 511.301 581.851 546.682C620.317 579.369 649.437 591.403 670.647 584.039C721.696 565.899 718.101 433.355 714.326 293.087C710.012 130.908 704.8 -53.0023 784.069 -90.8979C832.422 -113.887 906.479 -82.0974 1010.37 6.625C1120.2 100.556 1199.65 135.398 1252.86 112.948C1287.91 98.2209 1312.35 58.1702 1327.63 -9.539C1341.29 -69.8846 1346.69 -146.035 1351.72 -219.671C1362.15 -367.661 1372.75 -520.681 1451.12 -552.47C1507.56 -575.459 1593.48 -534.51 1714.1 -427.468L1714.99 -428.546C1594.02 -535.947 1507.56 -576.895 1450.58 -553.727C1414.99 -539.179 1390.19 -499.129 1374.73 -431.06C1360.89 -370.535 1355.49 -293.846 1350.28 -219.851C1340.04 -72.7582 1329.25 79.363 1252.14 111.691C1199.29 133.782 1120.56 99.119 1011.09 5.54736C906.659 -83.5342 832.242 -115.503 783.35 -92.155C747.58 -75.093 725.651 -27.6786 716.304 52.9618C708.215 123.724 710.552 209.753 712.888 293.087C716.663 432.995 720.438 565.001 670.108 582.782C627.327 597.868 546.979 527.645 424.569 367.621C354.467 276.025 287.241 209.932 224.508 170.779C167.347 135.219 112.164 121.21 60.9353 129.112C-124.207 157.848 -233.315 460.654 -312.765 681.741C-356.804 803.869 -391.495 900.494 -424.39 908.756C-431.04 910.372 -437.332 908.576 -443.623 903.009L-444.522 904.086C-439.129 908.576 -433.916 910.731 -428.704 910.731Z" fill="#21613E"/>
<path d="M-445.78 932.464C-444.162 932.464 -442.545 932.284 -440.927 931.925C-406.774 923.304 -369.925 826.5 -323.011 703.833C-238.169 481.667 -121.87 177.246 67.2266 149.408C118.455 141.864 172.92 155.514 229.181 189.818C290.835 227.534 356.624 291.292 424.749 379.475C488.381 461.912 539.43 518.665 580.772 552.969C619.059 584.758 647.999 596.432 669.749 588.889C722.236 570.749 720.798 438.923 719.539 299.553C717.922 138.452 716.124 -44.0217 797.191 -82.4561C846.443 -105.804 920.32 -75.4516 1023.32 10.3972C1110.14 82.776 1178.26 118.516 1229.67 118.516C1242.61 118.516 1254.48 116.182 1265.44 111.692C1301.39 96.7848 1326.91 56.734 1343.81 -10.7956C1358.73 -70.782 1365.38 -146.573 1372.03 -220.03C1385.15 -367.481 1398.81 -519.782 1479.16 -552.11C1536.5 -575.278 1622.24 -536.126 1741.6 -432.496L1742.5 -433.574C1622.6 -537.562 1536.32 -576.715 1478.62 -553.367C1442.13 -538.64 1416.25 -498.589 1399.17 -430.7C1384.07 -370.175 1377.24 -293.845 1370.59 -220.209C1357.47 -73.6556 1343.99 77.7471 1264.9 110.614C1211.16 132.884 1132.43 99.838 1024.22 9.49915C920.859 -76.7088 846.443 -107.061 796.652 -83.5336C759.983 -66.1124 736.975 -18.8776 726.01 61.2239C716.484 131.627 717.382 217.117 718.101 299.733C719.539 438.743 720.798 570.031 669.209 587.811C625.53 602.898 545.901 534.47 425.828 378.757C357.703 290.394 291.734 226.456 229.9 188.74C173.459 154.257 118.635 140.607 67.0469 148.15C-122.769 175.988 -239.247 480.949 -324.269 703.474C-371.004 825.781 -407.853 922.226 -441.286 930.667C-447.937 932.284 -454.048 930.488 -460.16 925.1L-461.059 926.177C-456.026 930.308 -450.993 932.464 -445.78 932.464Z" fill="#21613E"/>
<path d="M-463.395 954.375C-461.778 954.375 -460.16 954.195 -458.542 953.836C-423.85 945.395 -384.665 848.41 -335.054 725.564C-244.64 501.782 -120.792 195.205 73.1583 168.265C124.387 161.081 178.672 174.372 234.035 207.598C294.79 244.056 359.32 305.659 425.468 390.61C487.842 470.891 538.172 526.028 579.334 559.434C617.261 590.325 646.381 601.64 668.49 594.097C722.235 575.957 723.314 444.849 724.393 306.198C725.651 146.174 727.089 -35.2216 810.133 -74.1947C860.284 -97.7223 934.161 -68.8067 1036.26 14.1685C1143.93 101.634 1223.02 133.243 1278.02 110.614C1314.87 95.5273 1341.65 55.4765 1359.81 -12.0531C1375.99 -72.0395 1384.25 -147.651 1392.16 -220.748C1408.16 -367.661 1424.7 -519.423 1507.02 -552.29C1565.26 -575.458 1651 -538.102 1768.92 -438.064L1769.82 -439.142C1651.54 -539.538 1565.44 -576.895 1506.66 -553.547C1469.28 -538.64 1442.13 -498.41 1423.62 -430.701C1407.08 -370.355 1398.81 -294.384 1390.91 -220.928C1375.09 -75.0927 1358.73 75.7713 1277.48 109.177C1223.02 131.627 1144.29 100.017 1037.16 12.9113C934.7 -70.4231 860.284 -99.3387 809.594 -75.6315C772.026 -58.0307 747.76 -10.6163 735.357 68.9465C724.393 138.99 723.673 223.941 723.134 306.018C722.056 444.31 720.977 574.88 668.131 592.66C623.733 607.746 544.822 541.294 426.727 389.532C360.399 304.402 295.869 242.62 234.933 206.161C179.211 172.755 124.747 159.465 73.1583 166.649C-121.511 193.768 -245.538 500.705 -336.132 724.846C-385.564 847.153 -424.569 943.958 -458.542 952.219C-465.013 953.836 -471.304 952.04 -477.236 947.011L-478.135 948.089C-473.641 952.219 -468.608 954.375 -463.395 954.375Z" fill="#21613E"/>
<path d="M-481.55 976.286C-479.932 976.286 -478.315 976.106 -476.517 975.747C-441.286 967.306 -399.944 870.142 -347.457 747.116C-251.47 521.538 -119.893 212.806 78.9103 186.584C130.319 179.76 184.064 192.691 238.888 224.839C298.745 260.041 361.837 319.488 426.187 401.386C487.482 479.512 537.093 533.212 577.896 565.54C615.644 595.533 644.763 606.489 667.232 598.946C722.415 580.627 725.83 450.237 729.425 312.304C733.56 153.358 738.233 -26.96 823.435 -66.6516C874.484 -90.5385 948.361 -63.0596 1049.56 17.042C1156.15 101.454 1235.06 131.447 1290.96 108.818C1328.71 93.5515 1356.57 53.3212 1376.53 -13.8492C1393.78 -73.6561 1403.49 -149.088 1412.83 -221.826C1431.53 -368.38 1451.12 -519.782 1535.6 -553.008C1594.74 -576.356 1680.3 -540.796 1796.96 -444.171L1797.86 -445.248C1680.84 -542.232 1594.92 -577.793 1535.07 -554.266C1496.78 -539.179 1468.38 -498.949 1448.43 -431.24C1430.63 -371.074 1420.92 -295.282 1411.4 -222.006C1392.7 -76.7093 1373.47 73.7955 1290.07 107.56C1234.7 130.01 1156.15 100.197 1049.92 15.9644C948.361 -64.4965 873.944 -91.9753 822.356 -67.9089C783.89 -49.9489 758.365 -2.71405 744.345 76.6691C731.942 146.354 729.785 230.766 727.628 312.304C724.033 449.878 720.618 579.908 666.333 597.689C621.216 612.596 542.845 548.119 426.906 400.488C362.556 318.411 299.284 258.963 239.247 223.582C184.244 191.254 130.139 178.323 78.5508 185.148C-120.792 211.369 -252.728 520.64 -348.895 746.397C-401.202 869.064 -442.365 965.869 -476.877 974.13C-483.348 975.747 -489.459 974.13 -495.391 969.281L-496.29 970.359C-491.616 974.31 -486.763 976.286 -481.55 976.286Z" fill="#21613E"/>
<path d="M-500.424 998.376C-498.806 998.376 -497.009 998.197 -495.391 997.838C-459.621 989.217 -416.121 892.053 -360.758 768.848C-258.84 541.474 -119.174 230.227 84.4827 204.724C191.614 191.434 306.654 261.118 426.367 412.162C486.583 488.133 535.475 540.396 575.919 571.826C613.307 600.922 642.606 611.518 665.435 604.154C722.056 585.835 727.808 455.984 733.919 318.59C740.93 160.542 749.018 -18.6985 836.197 -59.1085C888.145 -83.1749 962.022 -57.3125 1062.32 20.0951C1144.29 83.3143 1210.44 114.744 1262.38 114.744C1277.12 114.744 1290.96 112.23 1303.55 107.201C1342.19 91.5759 1371.31 51.3455 1392.7 -15.6453C1411.58 -75.6317 1422.72 -150.704 1433.51 -223.443C1455.26 -369.457 1477.55 -520.501 1564.36 -554.266C1624.58 -577.614 1709.78 -543.849 1825.18 -450.636L1826.08 -451.714C1710.32 -545.286 1624.58 -579.23 1563.83 -555.523C1524.46 -540.257 1494.98 -499.847 1473.41 -432.317C1454.18 -372.331 1443.03 -296.719 1432.25 -223.622C1410.68 -78.5053 1388.39 71.4608 1303.01 105.764C1246.75 128.394 1168.2 100.017 1063.22 19.0175C962.382 -58.7493 887.965 -84.6117 835.478 -60.3657C796.113 -42.0464 769.33 5.18829 753.692 84.0327C739.851 153.358 736.076 237.411 732.481 318.411C726.37 455.446 720.618 584.758 664.895 602.718C618.879 617.624 541.227 554.944 427.446 411.264C364.893 332.24 303.059 274.948 243.921 240.823C189.636 209.573 135.891 197.001 84.303 203.287C-6.11133 214.602 -91.8519 282.491 -177.593 410.905C-250.931 520.64 -312.405 657.855 -362.016 768.129C-417.2 890.975 -460.699 987.96 -495.75 996.401C-502.221 998.017 -508.153 996.401 -513.905 991.731L-514.804 992.809C-510.31 996.58 -505.457 998.376 -500.424 998.376Z" fill="#21613E"/>
<path d="M-519.837 1020.65C-518.219 1020.65 -516.422 1020.47 -514.624 1020.11C-478.315 1011.49 -432.478 914.144 -374.239 790.579C-321.932 679.586 -256.863 541.294 -180.109 430.661C-90.5938 301.528 -2.15686 233.639 90.0548 222.684C197.006 210.112 310.249 277.462 426.547 422.758C485.685 496.574 533.858 547.401 573.942 577.933C611.15 606.13 640.449 616.367 663.457 609.003C721.516 590.684 729.785 461.372 738.413 324.517C748.299 167.188 759.624 -10.9757 848.959 -52.1041C901.806 -76.3501 975.683 -51.9245 1075.26 22.6095C1155.97 83.1347 1221.22 112.948 1273.17 112.948C1288.63 112.948 1303.01 110.254 1316.13 105.046C1356.03 89.2411 1386.41 49.0107 1409.24 -18.1597C1429.55 -77.787 1442.13 -152.68 1454.36 -225.239C1478.98 -370.894 1504.51 -521.758 1593.66 -556.062C1654.78 -579.589 1739.98 -547.441 1854.12 -457.641L1855.02 -458.719C1740.34 -548.878 1654.78 -581.206 1593.3 -557.319C1553.04 -541.694 1522.12 -501.463 1498.94 -433.934C1478.26 -373.947 1465.5 -298.336 1453.1 -225.418C1428.65 -80.6606 1403.49 68.9462 1315.77 103.789C1258.61 126.598 1180.24 99.6579 1076.16 21.7115C976.222 -53.1817 901.806 -77.787 848.42 -53.1818C808.156 -34.6829 780.115 12.5518 762.679 91.2166C747.401 160.363 742.188 243.877 736.975 324.517C728.347 461.013 720.079 589.786 662.918 607.926C616.183 622.653 539.07 561.948 427.266 422.219C366.51 346.249 306.114 290.932 247.875 258.065C194.31 227.713 141.104 215.5 89.5156 221.606C-3.05566 232.562 -91.8522 300.63 -181.547 430.122C-258.301 540.755 -323.37 679.047 -375.857 790.22C-433.916 913.246 -479.573 1010.59 -515.163 1019.03C-521.634 1020.47 -527.566 1019.21 -533.138 1014.72L-534.037 1015.8C-529.364 1018.85 -524.69 1020.65 -519.837 1020.65Z" fill="#21613E"/>
<path d="M-539.789 1043.1C-538.171 1043.1 -536.374 1042.92 -534.576 1042.56C-497.728 1033.94 -449.554 936.235 -388.439 812.49C-333.256 700.42 -264.412 561.05 -184.244 449.698C-90.5939 319.309 0.898926 251.061 95.2676 240.464C201.859 228.611 313.304 293.626 426.367 433.534C484.426 505.195 531.88 554.585 571.785 584.219C608.634 611.698 638.113 621.396 661.48 614.212C721.157 595.893 731.762 466.94 743.087 330.444C756.029 174.012 770.588 -3.43243 862.081 -45.2792C915.826 -69.8844 989.883 -46.7161 1088.57 25.124C1192.1 100.556 1270.65 126.059 1329.25 102.891C1369.87 86.9064 1401.51 46.4963 1425.96 -20.4944C1447.71 -80.3012 1461.91 -155.015 1475.57 -227.394C1503.07 -372.87 1531.65 -523.374 1622.96 -558.396C1684.98 -582.104 1770 -551.572 1883.06 -465.004L1883.96 -466.082C1770.54 -552.829 1685.16 -583.54 1622.6 -559.654C1581.26 -543.849 1549.09 -503.439 1524.28 -435.909C1502.35 -375.923 1487.97 -300.491 1474.13 -227.753C1446.81 -83.3544 1418.41 66.0728 1328.53 101.634C1270.47 124.622 1192.28 99.1191 1089.11 24.0463C990.063 -48.1529 915.467 -71.3213 861.362 -46.5364C820.02 -27.6785 790.72 19.5563 771.667 98.0416C754.95 167.008 748.12 249.983 741.469 330.264C730.324 466.222 719.719 594.635 660.941 612.775C613.487 627.323 537.093 568.414 427.266 432.636C368.128 359.539 309.17 306.378 252.01 274.588C199.343 245.314 146.496 233.46 95.0879 239.028C0.359619 249.624 -91.4926 318.052 -185.322 448.621C-265.67 560.152 -334.335 699.522 -389.698 811.592C-450.633 934.978 -498.806 1032.5 -534.936 1040.94C-541.407 1042.38 -547.159 1041.12 -552.731 1036.81L-553.63 1037.89C-549.136 1041.3 -544.642 1043.1 -539.789 1043.1Z" fill="#21613E"/>
<path d="M-560.281 1065.55C-558.483 1065.55 -556.866 1065.37 -555.068 1065.01C-517.86 1056.39 -467.17 958.326 -403.179 834.222C-344.94 721.254 -272.321 580.627 -188.558 468.198C-90.5941 336.91 3.95447 268.123 100.48 258.066C206.713 246.93 316.18 309.611 426.187 444.131C483.168 513.816 530.083 561.589 569.628 590.326C606.297 616.906 635.776 626.425 659.503 619.241C720.797 600.922 733.74 472.328 747.76 336.371C763.578 180.658 781.733 3.93158 875.382 -38.6337C930.026 -63.4185 1004.08 -41.8664 1102.05 27.4592C1179.34 82.2372 1243.15 109.177 1295.28 109.177C1312.18 109.177 1327.99 106.304 1342.55 100.556C1384.08 84.2128 1416.97 43.6232 1443.03 -23.3676C1466.22 -82.9948 1481.86 -157.708 1496.96 -229.908C1527.52 -375.384 1559.15 -525.709 1652.98 -561.09C1715.89 -584.797 1800.74 -555.882 1912.54 -472.727L1913.26 -473.804C1801.1 -557.318 1715.71 -586.414 1652.26 -562.347C1609.84 -546.363 1576.41 -505.773 1549.98 -438.244C1526.44 -378.257 1510.8 -303.005 1495.34 -230.087C1465.32 -86.048 1434.05 63.1996 1341.83 99.2992C1283.06 122.288 1204.68 98.4012 1102.59 26.202C1004.44 -43.3032 929.847 -64.8552 874.843 -39.8908C832.602 -20.6736 802.045 26.5612 781.194 104.867C763.039 173.654 754.591 256.27 746.322 336.192C732.481 471.79 719.36 599.844 659.143 617.984C610.97 632.532 535.116 575.239 427.266 443.233C369.926 373.01 312.226 321.824 255.964 291.292C204.016 263.094 151.709 251.42 100.48 256.808C3.41528 266.866 -91.3131 335.832 -189.457 467.479C-273.4 579.909 -345.839 720.715 -404.258 833.683C-468.069 957.428 -518.579 1055.31 -555.248 1063.75C-561.539 1065.19 -567.291 1063.93 -572.684 1059.98L-573.403 1061.06C-569.448 1064.11 -565.134 1065.55 -560.281 1065.55Z" fill="#21613E"/>
<path d="M-581.491 1088.36C-579.694 1088.36 -577.896 1088.18 -576.099 1087.82C-538.351 1079.2 -485.325 980.776 -418.278 856.134C-356.983 742.088 -280.59 600.204 -193.052 486.697C-90.774 354.152 6.83032 285.006 105.693 275.307C211.386 264.891 319.056 325.236 425.828 454.548C481.73 522.257 527.926 568.594 567.291 596.432C603.78 622.295 633.079 631.275 657.346 624.27C720.258 605.951 735.717 477.717 752.254 341.939C771.127 186.585 792.518 10.7565 888.504 -32.5271C944.047 -57.4915 1018.1 -37.3763 1115.35 29.2553C1191.02 81.1597 1254.12 106.843 1306.06 106.843C1323.86 106.843 1340.22 103.789 1355.49 97.8625C1398.28 81.3394 1432.43 40.7497 1460.11 -26.4207C1484.73 -86.0479 1501.99 -160.761 1518.71 -232.961C1552.32 -378.257 1587.01 -528.582 1683.36 -564.682C1747.17 -588.569 1832.01 -561.269 1942.74 -481.168L1943.46 -482.245C1832.37 -562.527 1747.17 -590.005 1682.82 -565.939C1639.32 -549.595 1604.45 -508.826 1576.59 -441.476C1551.6 -381.49 1534.35 -306.237 1517.45 -233.499C1484.02 -89.1011 1449.68 59.9669 1355.14 96.7849C1295.46 119.953 1217.27 97.5033 1116.07 28.1777C1018.46 -38.6335 943.867 -58.9283 887.965 -33.7843C844.645 -14.2079 812.829 33.2065 790.361 111.153C770.588 179.76 760.702 262.017 750.995 341.58C734.458 476.818 719 604.694 656.986 622.833C608.094 637.201 532.779 581.705 426.906 453.47C371.184 386.12 314.922 336.91 259.559 307.276C208.51 279.977 156.562 268.662 105.693 273.691C6.47083 283.389 -91.493 352.715 -193.95 485.619C-281.489 599.126 -357.882 741.19 -419.357 855.236C-486.224 979.519 -539.071 1077.58 -576.279 1086.2C-582.57 1087.64 -588.322 1086.56 -593.534 1082.61L-594.254 1083.69C-590.479 1086.92 -586.165 1088.36 -581.491 1088.36Z" fill="#21613E"/>
<path d="M-603.241 1111.34C-601.443 1111.34 -599.646 1111.16 -597.848 1110.63C-559.562 1101.83 -504.199 1003.23 -434.096 878.044C-369.566 762.921 -289.218 619.6 -197.905 505.015C-91.313 371.213 9.70642 301.528 110.726 292.189C215.7 282.49 321.573 340.501 425.288 464.605C480.112 530.339 525.769 575.239 564.775 602.358C600.904 627.323 630.383 636.123 655.009 629.118C719.539 610.799 737.694 482.744 756.748 347.146C778.677 192.511 803.483 17.2213 901.806 -26.7808C958.068 -51.9247 1032.3 -33.0667 1128.83 30.8708C1202.89 80.0812 1265.08 104.507 1317.03 104.507C1335.54 104.507 1352.8 101.454 1368.8 95.1677C1412.66 78.2852 1448.25 37.5161 1477.55 -29.6544C1503.61 -89.4612 1522.48 -163.995 1540.64 -236.194C1577.31 -381.491 1615.23 -531.816 1713.92 -568.454C1778.63 -592.521 1863.29 -566.838 1972.94 -489.79L1973.66 -490.867C1863.65 -568.095 1778.63 -593.778 1713.38 -569.712C1668.8 -553.188 1632.67 -512.24 1603.01 -444.71C1576.59 -384.544 1557.53 -309.292 1539.2 -236.554C1502.89 -92.5143 1465.32 56.5536 1368.26 93.9105C1307.68 117.258 1229.67 96.2452 1129.37 29.7933C1032.48 -34.5035 957.888 -53.3616 901.087 -27.8583C856.868 -7.92273 823.435 39.4917 799.348 117.438C778.138 185.866 766.454 267.943 755.31 347.146C736.256 482.206 718.101 609.901 654.47 627.861C604.859 642.05 530.083 588.349 426.187 463.886C372.083 399.23 317.259 351.996 262.795 323.439C212.464 297.218 161.236 286.083 110.546 290.932C9.16724 300.271 -92.032 370.135 -198.983 504.296C-290.296 618.881 -370.644 762.202 -435.354 877.505C-505.277 1002.33 -560.461 1100.75 -598.208 1109.37C-604.499 1110.81 -610.071 1109.73 -615.104 1106.14L-615.823 1107.21C-612.049 1109.91 -607.735 1111.34 -603.241 1111.34Z" fill="#21613E"/>
<path d="M-625.709 1134.33C-623.912 1134.33 -622.115 1134.15 -620.137 1133.62C-581.311 1124.82 -523.432 1025.68 -450.273 900.136C-382.508 783.755 -298.025 638.997 -202.938 523.335C-91.6724 388.096 12.4028 318.052 115.579 309.072C219.834 299.913 323.73 355.768 424.39 475.023C515.883 583.321 585.266 636.483 635.237 636.483C641.168 636.483 646.92 635.765 652.313 634.148C718.461 615.829 739.312 487.954 761.062 352.535C786.047 198.618 814.268 23.8674 915.107 -21.0326C972.448 -46.5358 1046.68 -29.1147 1142.49 32.3085C1214.93 79.0045 1276.23 101.993 1327.99 101.993C1347.41 101.993 1365.38 98.7606 1382.28 92.2949C1427.22 75.0533 1464.06 34.1046 1494.98 -33.2455C1522.48 -93.0522 1542.97 -167.766 1562.75 -239.785C1602.47 -385.082 1643.63 -535.407 1745.01 -572.764C1810.44 -596.83 1895.1 -572.764 2003.67 -498.948L2004.39 -500.026C1895.46 -574.021 1810.44 -598.267 1744.47 -574.021C1698.64 -557.139 1661.25 -516.01 1629.79 -448.301C1601.93 -388.135 1581.26 -312.883 1561.31 -239.965C1521.94 -95.9258 1481.14 53.1422 1381.56 91.2174C1320.26 114.745 1242.07 95.1685 1142.85 31.4105C1046.68 -30.3719 971.908 -47.793 914.209 -22.1102C868.912 -1.81543 834.22 45.7786 808.336 123.545C785.508 191.973 772.386 273.691 759.444 352.715C737.694 487.595 717.023 615.111 651.594 633.25C601.264 647.259 527.207 595.175 425.109 474.484C372.622 412.522 319.056 367.083 265.671 339.784C216.239 314.46 165.55 303.864 115.22 308.174C11.684 317.154 -92.9307 387.378 -204.376 522.976C-299.643 638.818 -383.946 783.575 -451.891 899.956C-524.87 1025.32 -582.57 1124.1 -620.856 1132.9C-627.147 1134.33 -632.54 1133.26 -637.573 1129.84L-638.292 1130.92C-634.158 1133.08 -630.023 1134.33 -625.709 1134.33Z" fill="#21613E"/>
<path d="M-648.718 1157.68C-646.92 1157.68 -644.943 1157.5 -643.146 1156.96C-603.781 1148.16 -543.564 1048.48 -467.17 922.405C-395.989 804.767 -307.552 658.573 -208.51 541.653C-92.751 404.978 14.9192 334.395 120.253 325.774C223.609 317.333 325.707 371.033 423.311 485.259C513.006 590.145 581.491 641.691 632.001 641.691C638.112 641.691 643.864 640.972 649.437 639.356C717.382 621.037 740.75 493.161 765.375 357.923C793.416 204.185 825.052 29.973 928.409 -15.825C986.468 -41.5078 1060.88 -25.3438 1155.97 33.565C1254.83 94.8086 1333.21 112.948 1395.76 89.241C1441.95 71.6402 1480.24 30.3322 1512.78 -37.0179C1541.9 -97.0043 1563.82 -171.538 1585.22 -243.737C1628.18 -389.213 1672.57 -539.718 1776.65 -577.614C1842.98 -601.86 1927.46 -579.23 2034.95 -508.647L2035.67 -509.725C1927.82 -580.667 1842.8 -603.297 1776.11 -578.871C1729.19 -561.629 1690.19 -520.321 1657.12 -452.612C1627.64 -392.267 1605.35 -317.014 1583.96 -244.097C1541.36 -100.057 1497.32 49.0106 1395.4 87.8041C1333.21 111.511 1255.19 93.3718 1156.69 32.3077C1061.24 -26.7806 986.468 -42.9446 927.87 -17.0823C881.494 3.57178 845.364 51.3454 817.683 128.933C793.417 197.181 778.497 278.719 764.117 357.563C739.491 492.443 716.304 619.779 649.077 637.919C598.028 651.748 524.51 601.46 424.39 484.181C373.52 424.734 321.213 381.271 268.906 354.869C220.373 330.444 170.223 320.207 120.253 324.158C14.5597 332.779 -93.2903 403.541 -209.409 540.576C-308.451 657.495 -397.068 803.869 -468.249 921.507C-544.463 1047.41 -604.499 1146.73 -643.325 1155.53C-649.437 1156.96 -654.829 1156.06 -659.862 1152.83L-660.581 1153.91C-656.986 1156.42 -653.032 1157.68 -648.718 1157.68Z" fill="#21613E"/>
<path d="M-672.265 1181.21C-670.467 1181.21 -668.49 1181.03 -666.513 1180.49C-626.609 1171.51 -563.876 1071.47 -484.426 944.676C-409.83 825.781 -317.079 677.97 -214.082 559.794C-93.4701 421.681 17.4359 350.38 124.926 342.118C227.384 334.216 327.505 385.761 422.233 495.317C520.916 609.363 594.254 658.035 646.561 644.385C716.304 626.066 742.367 498.37 769.689 362.952C800.786 209.753 836.017 35.9003 941.89 -10.7957C1000.85 -36.8376 1075.44 -22.1104 1169.81 34.2839C1267.78 92.8336 1346.15 109.716 1409.6 85.6496C1456.87 67.6896 1496.42 26.202 1530.93 -41.3276C1561.49 -101.494 1585.22 -176.207 1608.04 -248.406C1654.24 -394.062 1701.87 -544.746 1808.64 -583.54C1875.87 -607.966 1960.17 -586.952 2066.77 -519.243L2067.48 -520.321C1960.71 -588.21 1875.87 -609.402 1808.28 -584.797C1760.11 -567.376 1719.67 -525.709 1684.8 -457.82C1653.7 -397.295 1629.79 -321.863 1606.79 -248.945C1560.95 -104.367 1513.67 44.8804 1409.06 84.572C1346.15 108.459 1268.14 91.5764 1170.53 33.2064C1075.8 -23.5472 1000.85 -38.2744 941.351 -12.0528C893.717 8.96039 856.329 56.9136 826.85 134.501C800.966 202.749 784.429 284.108 768.431 362.772C741.109 497.652 715.225 624.988 646.201 643.128C594.613 656.598 521.635 608.106 423.311 494.419C374.06 437.486 323.011 395.819 271.602 370.495C223.789 346.968 174.537 336.91 124.926 340.861C17.0763 349.123 -94.1891 420.424 -214.981 558.896C-318.158 677.072 -410.909 825.063 -485.505 943.958C-564.775 1070.4 -627.507 1170.25 -666.693 1179.23C-672.805 1180.67 -678.197 1179.77 -682.87 1176.72L-683.589 1177.8C-680.354 1180.13 -676.579 1181.21 -672.265 1181.21Z" fill="#21613E"/>
<path d="M-696.711 1205.1C-656.986 1205.1 -590.838 1103.26 -502.581 967.305C-424.569 847.153 -327.325 697.546 -220.194 577.933C-94.7281 438.024 19.5929 366.184 129.42 358.282C230.979 350.918 328.943 400.488 420.974 505.374C517.86 615.828 590.659 663.063 643.505 649.593C676.22 641.152 701.924 610.62 724.213 553.507C743.985 502.68 758.545 437.306 774.004 368.16C808.336 215.141 847.162 41.647 955.371 -5.94702C1015.23 -32.1686 1090 -18.8782 1183.65 35.1814C1280.9 91.037 1359.27 106.483 1423.26 82.2366C1471.61 63.9174 1512.78 22.2502 1548.91 -45.459C1581.08 -105.805 1606.43 -180.518 1630.87 -252.897C1680.48 -398.912 1731.53 -549.776 1841 -589.288C1908.95 -613.893 1993.43 -594.317 2098.94 -529.481L2099.66 -530.559C1993.79 -595.574 1909.12 -615.15 1840.64 -590.365C1791.21 -572.585 1749.33 -530.738 1712.84 -462.49C1680.12 -401.785 1654.6 -326.174 1629.79 -253.256C1580.72 -108.858 1530.21 40.5694 1422.9 80.9794C1359.09 105.046 1281.08 89.6002 1184.37 33.9242C1090.18 -20.3151 1015.05 -33.785 954.832 -7.20422C906.12 14.1682 867.114 62.301 835.838 139.888C808.336 208.136 790.181 289.315 772.565 367.801C742.367 502.68 713.787 630.196 642.966 648.156C590.658 661.447 518.399 614.391 421.873 504.476C374.06 450.057 324.269 410.007 273.939 385.761C227.024 363.131 178.312 353.433 129.24 357.025C19.0536 364.927 -95.4471 436.947 -221.092 577.035C-328.403 696.648 -425.468 846.255 -503.659 966.587C-596.77 1110.09 -670.467 1223.41 -707.137 1200.79L-707.856 1201.86C-704.44 1204.02 -700.665 1205.1 -696.711 1205.1Z" fill="#21613E"/>
<path d="M-721.517 1228.98C-681.433 1228.98 -612.768 1126.61 -520.916 989.755C-439.309 868.166 -337.75 716.764 -226.305 595.893C-95.9868 454.368 21.7495 381.989 133.734 374.446C234.034 367.621 330.201 415.036 419.357 515.432C514.444 622.474 586.524 667.912 640.09 654.802C673.703 646.54 700.486 615.828 724.213 558.536C745.243 507.709 761.241 442.335 778.318 373.009C815.526 220.169 857.947 46.8555 968.852 -1.63647C1029.61 -28.2173 1104.38 -16.0045 1197.67 35.5407C1263.64 71.9995 1321.16 89.9595 1371.67 89.9595C1395.04 89.9595 1416.79 86.1879 1437.28 78.4651C1486.89 59.7867 1529.49 17.7603 1567.42 -50.1285C1601.21 -110.654 1628.18 -185.547 1654.42 -258.105C1707.09 -404.3 1761.55 -555.523 1873.89 -595.933C1942.74 -620.718 2027.04 -602.578 2131.48 -540.796L2132.19 -541.873C2027.22 -604.015 1942.56 -621.975 1873.35 -597.19C1822.67 -579.05 1779.35 -536.844 1740.88 -468.417C1706.55 -407.532 1679.4 -331.741 1652.98 -258.644C1600.85 -113.707 1546.75 35.8999 1436.92 77.2079C1372.39 101.454 1294.38 87.4451 1198.39 34.2835C1104.92 -17.4413 1029.61 -29.6541 968.493 -2.89368C918.522 18.8379 878.259 67.33 845.005 144.917C815.885 213.165 795.933 294.344 776.88 372.65C743.805 507.709 712.529 635.225 639.73 653.365C586.884 666.476 515.163 621.037 420.435 514.534C374.06 462.45 325.707 424.195 276.276 400.847C230.26 379.115 182.266 369.776 133.554 373.009C21.2104 380.552 -96.7056 453.29 -227.384 594.995C-338.829 715.866 -440.387 867.448 -522.174 989.037C-618.879 1133.08 -695.094 1246.76 -731.762 1225.03L-732.481 1226.11C-729.066 1228.08 -725.471 1228.98 -721.517 1228.98Z" fill="#21613E"/>
<path d="M-747.221 1253.23C-706.777 1253.23 -635.596 1150.32 -539.969 1012.39C-454.768 889.359 -348.535 736.16 -232.956 613.853C-97.6042 470.711 23.7268 397.435 137.688 390.251C236.731 383.965 330.92 429.403 417.559 525.31C500.244 617.085 565.853 661.986 617.261 661.986C623.912 661.986 630.203 661.267 636.315 659.83C670.827 651.569 698.688 620.857 723.853 563.565C746.142 512.558 763.578 447.184 782.092 377.858C822.716 225.198 868.911 52.064 982.514 2.49432C1044.17 -24.2661 1119.12 -13.4901 1211.69 35.7203C1307.5 86.3676 1385.87 99.1191 1451.48 74.514C1502.35 55.4764 1546.39 13.0908 1585.93 -54.9777C1621.34 -115.682 1650.1 -190.935 1677.97 -263.493C1734.05 -410.226 1792.11 -561.809 1907.33 -602.937C1976.89 -627.902 2061.19 -611.199 2164.73 -552.29L2165.45 -553.547C2061.37 -612.815 1976.89 -629.338 1906.97 -604.374C1855.02 -585.875 1810.26 -543.31 1769.82 -474.703C1733.87 -413.459 1704.93 -337.668 1676.71 -264.212C1621.17 -118.915 1563.65 31.0507 1450.94 73.2567C1385.69 97.6823 1307.68 84.9307 1212.41 34.2835C1119.48 -15.1065 1044.17 -25.8824 981.974 1.05756C930.925 23.3279 889.044 71.9995 853.992 149.587C823.255 218.014 801.685 298.834 780.834 377.14C744.884 512.379 710.731 640.254 635.955 658.214C582.39 671.145 511.389 627.143 418.458 524.053C373.52 474.303 326.426 437.665 278.073 415.395C232.956 394.561 185.682 385.402 137.509 388.634C23.1877 395.998 -98.5032 469.275 -234.035 612.775C-349.793 735.262 -455.846 888.461 -541.227 1011.49C-641.348 1155.89 -720.438 1270.11 -757.107 1249.1L-757.826 1250.36C-754.411 1252.33 -750.995 1253.23 -747.221 1253.23Z" fill="#21613E"/>
<path d="M-773.644 1277.65C-733.021 1277.65 -658.964 1174.2 -559.742 1035.19C-470.765 910.552 -359.86 755.557 -239.787 631.633C-99.2222 486.517 25.5247 412.701 141.643 405.697C239.607 399.77 331.639 443.413 415.582 535.009C507.075 635.046 578.076 677.611 632.72 664.859C668.131 656.598 697.071 625.886 723.853 568.414C747.58 517.408 766.454 451.674 786.406 382.169C830.265 229.509 880.056 56.5543 996.534 5.90704C1059.09 -21.2125 1134.22 -11.6937 1226.25 35.1819C1320.98 83.6739 1399.35 95.1683 1465.68 70.3835C1517.81 50.9867 1563.29 8.24188 1604.81 -60.1857C1641.84 -121.25 1672.39 -196.502 1701.87 -269.42C1761.37 -416.512 1823.02 -568.633 1941.12 -610.66C2011.58 -635.804 2095.71 -620.538 2198.34 -564.323L2199.06 -565.58C2095.89 -621.974 2011.4 -637.24 1940.58 -611.917C1887.38 -592.879 1841 -550.134 1798.76 -481.168C1761.19 -419.745 1730.27 -343.594 1700.61 -269.958C1641.66 -124.483 1580.72 26.0223 1465.32 69.1263C1399.35 93.7315 1321.16 82.4167 1226.61 34.2839C1134.22 -12.7713 1058.73 -22.2901 995.815 5.00909C943.508 27.6387 900.188 76.6695 863.16 154.436C830.625 222.864 807.437 303.863 784.968 381.989C745.963 517.587 709.114 645.642 632.361 663.602C578.256 676.174 507.794 633.968 416.661 534.29C373.161 486.696 327.145 451.674 279.871 430.302C235.652 410.187 189.097 401.566 141.643 404.439C25.165 411.444 -99.9412 485.439 -240.685 630.735C-360.758 754.659 -471.664 909.834 -560.64 1034.48C-664.356 1179.41 -746.142 1294 -782.811 1274.06L-783.53 1275.32C-780.475 1276.94 -777.239 1277.65 -773.644 1277.65Z" fill="#21613E"/>
<path d="M-800.607 1302.44C-759.624 1302.44 -683.05 1198.27 -580.053 1058.36C-487.122 932.104 -371.543 775.134 -247.156 649.594C-101.199 502.681 27.1422 427.967 145.418 421.142C241.943 415.575 332.178 457.242 413.425 544.887C503.3 641.691 573.582 682.64 628.586 670.068C665.075 661.806 695.093 631.095 723.314 573.443C748.299 522.257 768.791 456.523 790.361 386.659C837.635 233.999 891.021 61.0443 1010.19 9.49908C1073.47 -17.9797 1148.78 -9.71808 1240.45 34.8227C1334.64 80.6207 1413.01 90.6783 1480.24 65.7139C1533.63 45.7783 1580.72 2.67432 1624.04 -66.1125C1662.69 -127.356 1695.04 -202.968 1726.14 -276.065C1789.23 -423.696 1854.48 -576.356 1975.45 -619.281C2046.63 -644.604 2130.76 -630.954 2232.67 -577.434L2233.21 -578.691C2130.94 -632.391 2046.45 -646.041 1974.91 -620.717C1920.27 -601.321 1872.28 -558.217 1828.24 -488.711C1788.87 -426.929 1756.34 -350.599 1724.7 -276.604C1662.51 -130.23 1598.16 20.6343 1479.7 64.8159C1413.01 89.6007 1335 79.5431 1240.99 33.9247C1149.14 -10.7957 1073.47 -19.0573 1009.66 8.42151C956.09 31.5899 911.153 80.8003 872.327 158.747C838.174 227.354 813.189 308.174 788.923 386.479C746.861 522.437 707.136 650.851 628.226 668.811C573.762 681.203 503.659 640.434 414.324 543.989C372.262 498.55 327.325 465.144 281.129 444.67C237.809 425.453 192.153 417.011 145.058 419.705C26.4232 426.351 -102.098 501.244 -248.235 648.516C-372.802 774.056 -488.381 931.206 -581.312 1057.29C-688.622 1202.94 -773.285 1318.06 -809.953 1298.67L-810.493 1299.93C-807.257 1301.72 -804.022 1302.44 -800.607 1302.44Z" fill="#21613E"/>
<path d="M-828.288 1327.4C-787.125 1327.4 -707.675 1222.52 -600.724 1081.35C-503.839 953.477 -383.406 794.351 -254.346 667.374C-103.176 518.486 28.76 442.874 149.013 436.409C244.101 431.38 332.358 471.071 411.268 554.765C488.92 637.201 552.372 677.611 604.32 677.611C611.33 677.611 617.981 676.893 624.631 675.456C662.019 667.194 693.296 636.483 722.955 578.652C749.378 527.286 771.128 461.373 794.315 391.329C844.825 238.669 902.165 65.7141 1024.22 12.9116C1088.39 -14.9264 1163.88 -7.74231 1255.01 34.4637C1348.66 77.9269 1427.04 86.7273 1494.8 61.4037C1549.45 41.1089 1598.16 -2.35437 1643.45 -71.5004C1683.72 -133.103 1717.87 -208.894 1750.77 -282.351C1817.45 -430.521 1886.3 -583.72 2010.32 -627.722C2082.22 -653.225 2166.35 -641.012 2267.37 -590.185L2267.91 -591.442C2166.53 -642.449 2082.04 -654.662 2009.78 -629.158C1953.88 -609.223 1904.27 -565.76 1858.26 -495.895C1817.27 -433.754 1782.76 -357.064 1749.51 -282.89C1683.72 -136.516 1615.59 14.8873 1494.26 60.1465C1426.86 85.2905 1348.66 76.4901 1255.55 33.2065C1164.06 -9.17914 1088.21 -16.3632 1023.68 11.6545C968.853 35.3617 922.477 84.9313 881.674 163.057C845.724 231.844 818.941 312.664 793.057 390.97C747.94 527.466 705.159 656.239 624.272 674.199C569.268 686.412 499.885 647.079 412.167 553.867C333.077 469.994 244.46 429.943 148.833 435.151C28.2209 441.617 -104.075 517.229 -255.425 666.476C-384.485 793.633 -504.917 952.758 -601.803 1080.63C-712.708 1227.01 -800.247 1342.49 -836.916 1324.17L-837.455 1325.43C-834.759 1326.69 -831.703 1327.4 -828.288 1327.4Z" fill="#21613E"/>
<path d="M-856.689 1352.73C-815.346 1352.73 -733.02 1247.12 -622.295 1104.88C-521.455 975.388 -395.989 814.107 -262.435 685.334C-105.873 534.29 29.8385 457.781 152.248 451.495C245.898 446.646 332.178 484.721 408.572 564.463C495.031 654.622 564.235 692.698 620.137 680.664C658.424 672.403 690.959 641.511 722.236 583.68C750.097 532.135 773.464 465.863 798.27 395.639C852.195 242.799 913.31 69.665 1038.24 15.785C1103.31 -12.2325 1178.98 -6.48529 1269.57 33.5655C1339.86 64.6363 1401.15 76.3103 1457.05 69.4855C1507.02 63.1995 1551.24 42.3659 1592.59 5.36829C1669.16 -63.2389 1723.44 -178.183 1775.75 -289.176C1846.03 -438.064 1918.65 -591.802 2045.73 -636.881C2118.35 -662.564 2202.48 -651.788 2302.78 -603.655L2303.32 -604.913C2202.66 -653.225 2118.17 -664.18 2045.2 -638.318C1987.86 -618.023 1936.63 -574.021 1888.63 -503.798C1845.85 -441.297 1809.54 -364.249 1774.31 -289.894C1722.01 -178.901 1667.72 -64.1369 1591.33 4.29065C1505.77 80.9799 1400.61 90.1395 1269.93 32.3083C1178.98 -7.92212 1102.95 -13.6693 1037.52 14.5279C981.435 38.7739 933.442 88.5231 890.661 167.008C853.094 235.975 824.513 316.974 796.832 395.1C748.479 531.955 702.823 661.447 619.598 679.228C564.235 691.081 495.391 653.365 409.291 563.385C332.538 483.284 246.078 445.209 151.889 450.058C29.1195 456.344 -106.772 532.854 -263.514 684.077C-397.068 813.03 -522.713 974.131 -623.553 1103.8C-738.054 1250.89 -828.468 1367.1 -865.137 1349.49L-865.676 1350.75C-862.8 1352.01 -859.924 1352.73 -856.689 1352.73Z" fill="#21613E"/>
<path d="M-885.808 1378.23C-844.286 1378.23 -759.084 1271.73 -644.224 1128.23C-539.25 996.94 -408.572 833.504 -270.344 702.934C-108.21 549.736 30.9169 472.508 155.304 466.401C247.516 461.911 331.818 498.19 405.875 574.161C490.718 661.267 559.202 697.726 615.644 685.872C655.009 677.611 688.622 646.72 721.516 588.529C750.816 536.804 775.801 470.173 802.224 399.77C859.564 246.751 924.634 73.4365 1052.62 18.2993C1118.58 -10.0775 1194.44 -5.58752 1284.67 32.308C1354.96 61.9421 1416.61 72.5385 1473.23 64.636C1523.56 57.6317 1568.68 36.0797 1610.92 -1.2771C1689.47 -70.7823 1746.09 -185.547 1801.09 -296.719C1857.36 -410.406 1915.42 -528.044 1997.02 -597.19C2088.34 -674.598 2200.14 -681.422 2338.73 -617.844L2339.27 -619.101C2264.85 -653.225 2199.6 -667.054 2140.28 -661.307C2087.26 -656.099 2040.16 -635.624 1996.12 -598.268C1914.34 -528.942 1856.1 -411.304 1799.84 -297.438C1745.01 -186.445 1688.21 -71.6804 1610.02 -2.53436C1522.3 75.2325 1416.07 86.1881 1285.03 31.2305C1194.44 -6.84473 1118.22 -11.3347 1051.9 17.2217C994.557 42.0065 944.766 92.2944 900.008 170.78C860.643 239.926 830.265 320.925 800.786 399.411C749.198 536.984 700.486 666.835 615.105 684.795C559.202 696.469 491.077 660.01 406.595 573.443C332.178 497.113 247.695 460.654 154.944 465.324C30.1981 471.43 -109.288 548.838 -271.602 702.216C-410.01 832.965 -540.508 996.401 -645.662 1127.69C-763.938 1275.5 -857.228 1392.42 -894.077 1375.54L-894.616 1376.79C-891.74 1377.69 -888.864 1378.23 -885.808 1378.23Z" fill="#21613E"/>
</g>
</g>
<g style="mix-blend-mode:screen" filter="url(#filter0_f_206_3594)">
<!-- edit here -->
<path d="M1013.79 481.406C1061.53 307.818 844.527 96.7842 529.111 10.0486C213.695 -76.687 -80.6965 -6.27931 -128.431 167.309C-176.166 340.896 40.833 551.93 356.249 638.666C671.665 725.401 966.057 654.994 1013.79 481.406Z" fill="#e5e7eb" fill-opacity="0.1"/>
</g>
<g style="mix-blend-mode:screen" filter="url(#filter1_f_206_3594)">
<path d="M664.578 280.342C697.483 160.685 552.647 16.5204 341.078 -41.6584C129.51 -99.8371 -68.6742 -49.9992 -101.578 69.6578C-134.483 189.315 10.3533 333.479 221.922 391.658C433.49 449.837 631.674 399.999 664.578 280.342Z" fill="#e5e7eb" fill-opacity="0.1"/>
</g>
<g style="mix-blend-mode:screen" filter="url(#filter2_f_206_3594)">
<path d="M1546.24 12.524C1519.55 -98.3924 1294.35 -139.334 1043.22 -78.9209C792.098 -18.5081 610.152 120.382 636.835 231.298C663.518 342.214 888.726 383.156 1139.85 322.743C1390.97 262.33 1572.92 123.44 1546.24 12.524Z" fill="#e5e7eb" fill-opacity="0.1"/>
<!-- end edit  -->
</g>
</g>
<defs>
<filter id="filter0_f_206_3594" x="-238.168" y="-130.235" width="1361.7" height="909.184" filterUnits="userSpaceOnUse" color-interpolation-filters="sRGB">
<feFlood flood-opacity="0" result="BackgroundImageFix"/>
<feBlend mode="normal" in="SourceGraphic" in2="BackgroundImageFix" result="shape"/>
<feGaussianBlur stdDeviation="51.5773" result="effect1_foregroundBlur_206_3594"/>
</filter>
<filter id="filter1_f_206_3594" x="-209.394" y="-169.119" width="981.787" height="688.238" filterUnits="userSpaceOnUse" color-interpolation-filters="sRGB">
<feFlood flood-opacity="0" result="BackgroundImageFix"/>
<feBlend mode="normal" in="SourceGraphic" in2="BackgroundImageFix" result="shape"/>
<feGaussianBlur stdDeviation="51.5773" result="effect1_foregroundBlur_206_3594"/>
</filter>
<filter id="filter2_f_206_3594" x="531.084" y="-209.977" width="1120.9" height="663.776" filterUnits="userSpaceOnUse" color-interpolation-filters="sRGB">
<feFlood flood-opacity="0" result="BackgroundImageFix"/>
<feBlend mode="normal" in="SourceGraphic" in2="BackgroundImageFix" result="shape"/>
<feGaussianBlur stdDeviation="51.5773" result="effect1_foregroundBlur_206_3594"/>
</filter>
<clipPath id="clip0_206_3594">
<rect width="1440" height="866" fill="white"/>
</clipPath>
<clipPath id="clip1_206_3594">
<rect width="1438" height="866" fill="white" transform="matrix(-1 0 0 1 1438 0)"/>
</clipPath>
</defs>
</svg>
